<mxfile host="app.diagrams.net" modified="2021-01-28T06:53:31.842Z" agent="5.0 (Windows NT 6.1; WOW64) AppleWebKit/537.36 (KHTML, like Gecko) Chrome/83.0.4103.106 Safari/537.36" etag="1RuJ5t7Bs8GhSVP4Oecd" version="14.2.7" type="github">
  <diagram id="wFE0QG_FPsp0jaGvCLVb" name="Page-1">
    <mxGraphModel dx="1102" dy="533" grid="1" gridSize="10" guides="1" tooltips="1" connect="1" arrows="1" fold="1" page="1" pageScale="1" pageWidth="850" pageHeight="1100" math="0" shadow="0">
      <root>
        <mxCell id="0" />
        <mxCell id="1" parent="0" />
        <mxCell id="lS7IzG5Dcs2hJgS2R87p-7" style="edgeStyle=orthogonalEdgeStyle;rounded=0;orthogonalLoop=1;jettySize=auto;html=1;exitX=0.5;exitY=1;exitDx=0;exitDy=0;entryX=0.5;entryY=0;entryDx=0;entryDy=0;" edge="1" parent="1" source="lS7IzG5Dcs2hJgS2R87p-1" target="lS7IzG5Dcs2hJgS2R87p-4">
          <mxGeometry relative="1" as="geometry" />
        </mxCell>
        <mxCell id="lS7IzG5Dcs2hJgS2R87p-1" value="oracle&lt;br&gt;数据库创建装载表" style="rounded=0;whiteSpace=wrap;html=1;" vertex="1" parent="1">
          <mxGeometry x="100" y="70" width="120" height="40" as="geometry" />
        </mxCell>
        <mxCell id="lS7IzG5Dcs2hJgS2R87p-2" value="oracle采集配置流程" style="text;html=1;strokeColor=none;fillColor=none;align=center;verticalAlign=middle;whiteSpace=wrap;rounded=0;fontSize=13;" vertex="1" parent="1">
          <mxGeometry x="101" y="20" width="120" height="40" as="geometry" />
        </mxCell>
        <mxCell id="lS7IzG5Dcs2hJgS2R87p-12" style="edgeStyle=orthogonalEdgeStyle;rounded=0;orthogonalLoop=1;jettySize=auto;html=1;exitX=0.5;exitY=1;exitDx=0;exitDy=0;entryX=0.454;entryY=-0.025;entryDx=0;entryDy=0;entryPerimeter=0;" edge="1" parent="1" source="lS7IzG5Dcs2hJgS2R87p-4" target="lS7IzG5Dcs2hJgS2R87p-8">
          <mxGeometry relative="1" as="geometry" />
        </mxCell>
        <mxCell id="lS7IzG5Dcs2hJgS2R87p-4" value="编写ctl配置文件" style="rounded=0;whiteSpace=wrap;html=1;" vertex="1" parent="1">
          <mxGeometry x="100" y="140" width="120" height="40" as="geometry" />
        </mxCell>
        <mxCell id="lS7IzG5Dcs2hJgS2R87p-15" style="edgeStyle=orthogonalEdgeStyle;rounded=0;orthogonalLoop=1;jettySize=auto;html=1;exitX=0.5;exitY=1;exitDx=0;exitDy=0;entryX=0.5;entryY=0;entryDx=0;entryDy=0;" edge="1" parent="1" source="lS7IzG5Dcs2hJgS2R87p-8" target="lS7IzG5Dcs2hJgS2R87p-13">
          <mxGeometry relative="1" as="geometry" />
        </mxCell>
        <mxCell id="lS7IzG5Dcs2hJgS2R87p-8" value="配置待入库文件FTP地址" style="rounded=0;whiteSpace=wrap;html=1;" vertex="1" parent="1">
          <mxGeometry x="101" y="210" width="119" height="40" as="geometry" />
        </mxCell>
        <mxCell id="lS7IzG5Dcs2hJgS2R87p-44" value="" style="edgeStyle=orthogonalEdgeStyle;rounded=0;orthogonalLoop=1;jettySize=auto;html=1;fontSize=15;entryX=0.5;entryY=0;entryDx=0;entryDy=0;" edge="1" parent="1" source="lS7IzG5Dcs2hJgS2R87p-13" target="lS7IzG5Dcs2hJgS2R87p-37">
          <mxGeometry relative="1" as="geometry">
            <Array as="points">
              <mxPoint x="165" y="330" />
              <mxPoint x="165" y="330" />
            </Array>
          </mxGeometry>
        </mxCell>
        <mxCell id="lS7IzG5Dcs2hJgS2R87p-13" value="采集工具参数设置" style="rounded=0;whiteSpace=wrap;html=1;" vertex="1" parent="1">
          <mxGeometry x="101" y="270" width="119" height="40" as="geometry" />
        </mxCell>
        <mxCell id="lS7IzG5Dcs2hJgS2R87p-36" value="" style="edgeStyle=orthogonalEdgeStyle;rounded=0;orthogonalLoop=1;jettySize=auto;html=1;" edge="1" parent="1" source="lS7IzG5Dcs2hJgS2R87p-37" target="lS7IzG5Dcs2hJgS2R87p-30">
          <mxGeometry relative="1" as="geometry">
            <Array as="points">
              <mxPoint x="161" y="440" />
              <mxPoint x="161" y="440" />
            </Array>
          </mxGeometry>
        </mxCell>
        <mxCell id="lS7IzG5Dcs2hJgS2R87p-17" style="edgeStyle=orthogonalEdgeStyle;rounded=0;orthogonalLoop=1;jettySize=auto;html=1;exitX=0.5;exitY=1;exitDx=0;exitDy=0;entryX=0.5;entryY=0;entryDx=0;entryDy=0;" edge="1" parent="1" source="lS7IzG5Dcs2hJgS2R87p-18" target="lS7IzG5Dcs2hJgS2R87p-21">
          <mxGeometry relative="1" as="geometry" />
        </mxCell>
        <mxCell id="lS7IzG5Dcs2hJgS2R87p-18" value="greenplum&lt;br&gt;数据库创建装载表" style="rounded=0;whiteSpace=wrap;html=1;" vertex="1" parent="1">
          <mxGeometry x="460" y="70" width="120" height="40" as="geometry" />
        </mxCell>
        <mxCell id="lS7IzG5Dcs2hJgS2R87p-19" value="greenplum采集配置流程" style="text;html=1;strokeColor=none;fillColor=none;align=center;verticalAlign=middle;whiteSpace=wrap;rounded=0;" vertex="1" parent="1">
          <mxGeometry x="450" y="20" width="140" height="40" as="geometry" />
        </mxCell>
        <mxCell id="lS7IzG5Dcs2hJgS2R87p-20" style="edgeStyle=orthogonalEdgeStyle;rounded=0;orthogonalLoop=1;jettySize=auto;html=1;exitX=0.5;exitY=1;exitDx=0;exitDy=0;entryX=0.454;entryY=-0.025;entryDx=0;entryDy=0;entryPerimeter=0;" edge="1" parent="1" source="lS7IzG5Dcs2hJgS2R87p-21" target="lS7IzG5Dcs2hJgS2R87p-23">
          <mxGeometry relative="1" as="geometry" />
        </mxCell>
        <mxCell id="lS7IzG5Dcs2hJgS2R87p-21" value="编写yml配置文件" style="rounded=0;whiteSpace=wrap;html=1;" vertex="1" parent="1">
          <mxGeometry x="460" y="140" width="120" height="40" as="geometry" />
        </mxCell>
        <mxCell id="lS7IzG5Dcs2hJgS2R87p-22" style="edgeStyle=orthogonalEdgeStyle;rounded=0;orthogonalLoop=1;jettySize=auto;html=1;exitX=0.5;exitY=1;exitDx=0;exitDy=0;entryX=0.5;entryY=0;entryDx=0;entryDy=0;" edge="1" parent="1" source="lS7IzG5Dcs2hJgS2R87p-23" target="lS7IzG5Dcs2hJgS2R87p-24">
          <mxGeometry relative="1" as="geometry" />
        </mxCell>
        <mxCell id="lS7IzG5Dcs2hJgS2R87p-23" value="配置待入库文件FTP地址" style="rounded=0;whiteSpace=wrap;html=1;" vertex="1" parent="1">
          <mxGeometry x="461" y="210" width="119" height="40" as="geometry" />
        </mxCell>
        <mxCell id="lS7IzG5Dcs2hJgS2R87p-27" value="" style="edgeStyle=orthogonalEdgeStyle;rounded=0;orthogonalLoop=1;jettySize=auto;html=1;" edge="1" parent="1" source="lS7IzG5Dcs2hJgS2R87p-24">
          <mxGeometry relative="1" as="geometry">
            <mxPoint x="521" y="350" as="targetPoint" />
          </mxGeometry>
        </mxCell>
        <mxCell id="lS7IzG5Dcs2hJgS2R87p-24" value="采集工具参数设置" style="rounded=0;whiteSpace=wrap;html=1;" vertex="1" parent="1">
          <mxGeometry x="461" y="270" width="119" height="50" as="geometry" />
        </mxCell>
        <mxCell id="lS7IzG5Dcs2hJgS2R87p-28" value="" style="shape=flexArrow;endArrow=classic;html=1;" edge="1" parent="1">
          <mxGeometry width="50" height="50" relative="1" as="geometry">
            <mxPoint x="260" y="230" as="sourcePoint" />
            <mxPoint x="430" y="230" as="targetPoint" />
          </mxGeometry>
        </mxCell>
        <mxCell id="lS7IzG5Dcs2hJgS2R87p-29" value="装置自动解析每一项配置并将其转化" style="text;html=1;align=center;verticalAlign=middle;resizable=0;points=[];autosize=1;" vertex="1" parent="1">
          <mxGeometry x="230" y="190" width="210" height="20" as="geometry" />
        </mxCell>
        <mxCell id="lS7IzG5Dcs2hJgS2R87p-30" value="配置任务调度器" style="rounded=0;whiteSpace=wrap;html=1;" vertex="1" parent="1">
          <mxGeometry x="101" y="430" width="119" height="50" as="geometry" />
        </mxCell>
        <mxCell id="lS7IzG5Dcs2hJgS2R87p-31" value="配置任务调度器" style="rounded=0;whiteSpace=wrap;html=1;" vertex="1" parent="1">
          <mxGeometry x="460" y="430" width="119" height="50" as="geometry" />
        </mxCell>
        <mxCell id="lS7IzG5Dcs2hJgS2R87p-39" style="edgeStyle=orthogonalEdgeStyle;rounded=0;orthogonalLoop=1;jettySize=auto;html=1;entryX=0;entryY=0.25;entryDx=0;entryDy=0;fontSize=15;" edge="1" parent="1" source="lS7IzG5Dcs2hJgS2R87p-37" target="lS7IzG5Dcs2hJgS2R87p-1">
          <mxGeometry relative="1" as="geometry">
            <Array as="points">
              <mxPoint x="80" y="365" />
              <mxPoint x="80" y="80" />
            </Array>
          </mxGeometry>
        </mxCell>
        <mxCell id="lS7IzG5Dcs2hJgS2R87p-38" value="正常" style="text;html=1;align=center;verticalAlign=middle;resizable=0;points=[];autosize=1;fontSize=13;" vertex="1" parent="1">
          <mxGeometry x="165" y="390" width="40" height="20" as="geometry" />
        </mxCell>
        <mxCell id="lS7IzG5Dcs2hJgS2R87p-40" value="异常" style="text;html=1;align=center;verticalAlign=middle;resizable=0;points=[];autosize=1;fontSize=13;" vertex="1" parent="1">
          <mxGeometry x="85" y="380" width="40" height="20" as="geometry" />
        </mxCell>
        <mxCell id="lS7IzG5Dcs2hJgS2R87p-37" value="测试校验" style="rhombus;whiteSpace=wrap;html=1;fontSize=15;" vertex="1" parent="1">
          <mxGeometry x="110" y="340" width="110" height="50" as="geometry" />
        </mxCell>
        <mxCell id="lS7IzG5Dcs2hJgS2R87p-48" style="edgeStyle=orthogonalEdgeStyle;rounded=0;orthogonalLoop=1;jettySize=auto;html=1;exitX=1;exitY=0.5;exitDx=0;exitDy=0;entryX=1;entryY=0.25;entryDx=0;entryDy=0;fontSize=15;" edge="1" parent="1" source="lS7IzG5Dcs2hJgS2R87p-46" target="lS7IzG5Dcs2hJgS2R87p-18">
          <mxGeometry relative="1" as="geometry">
            <Array as="points">
              <mxPoint x="600" y="375" />
              <mxPoint x="600" y="80" />
            </Array>
          </mxGeometry>
        </mxCell>
        <mxCell id="lS7IzG5Dcs2hJgS2R87p-55" value="" style="edgeStyle=orthogonalEdgeStyle;rounded=0;orthogonalLoop=1;jettySize=auto;html=1;fontSize=13;" edge="1" parent="1" source="lS7IzG5Dcs2hJgS2R87p-46" target="lS7IzG5Dcs2hJgS2R87p-31">
          <mxGeometry relative="1" as="geometry" />
        </mxCell>
        <mxCell id="lS7IzG5Dcs2hJgS2R87p-46" value="测试校验" style="rhombus;whiteSpace=wrap;html=1;fontSize=15;" vertex="1" parent="1">
          <mxGeometry x="465" y="350" width="110" height="50" as="geometry" />
        </mxCell>
        <mxCell id="lS7IzG5Dcs2hJgS2R87p-49" value="正常" style="text;html=1;align=center;verticalAlign=middle;resizable=0;points=[];autosize=1;fontSize=13;" vertex="1" parent="1">
          <mxGeometry x="523.5" y="410" width="40" height="20" as="geometry" />
        </mxCell>
        <mxCell id="lS7IzG5Dcs2hJgS2R87p-50" value="异常" style="text;html=1;align=center;verticalAlign=middle;resizable=0;points=[];autosize=1;fontSize=13;" vertex="1" parent="1">
          <mxGeometry x="580.5" y="390" width="40" height="20" as="geometry" />
        </mxCell>
      </root>
    </mxGraphModel>
  </diagram>
</mxfile>
